<svg width="512" height="175" viewBox="0 0 512 175" fill="none" xmlns="http://www.w3.org/2000/svg">
<g clip-path="url(#clip0_1_45)">
<path d="M112.48 28.5467C112.48 52.2133 112.467 75.8933 112.48 99.56C100.56 99.7067 88.6266 99.6533 76.7066 99.6C76.68 87.84 76.7066 76.08 76.7066 64.32C64.7066 64.08 52.7467 64.6267 40.7467 63.8133C40.8666 52.0533 40.7733 40.2933 40.8 28.52C64.6933 28.4667 88.5867 28.4267 112.48 28.5467Z" fill="#D71F24"/>
<path d="M329.053 28.6533C331.293 28.6133 333.52 28.5867 335.76 28.56C335.72 31.2 335.693 33.8533 335.64 36.4933C333.4 36.1867 331.147 35.8533 328.893 35.5333C328.947 33.24 329 30.9467 329.053 28.6533Z" fill="#D71F24"/>
<path d="M347.667 28.64C350.107 28.64 352.547 28.64 354.987 28.64C354.973 44.6133 354.973 60.5733 354.987 76.5333C352.547 76.5333 350.107 76.5333 347.68 76.5333C347.693 60.56 347.707 44.6 347.667 28.64Z" fill="#D71F24"/>
<path d="M234.133 32.7467C236.253 32.4667 238.413 32.4 240.547 32.28C240.573 35.1067 240.587 37.92 240.6 40.7467C248.507 40.7733 256.4 40.7467 264.293 40.7733C264.32 42.56 264.347 44.3467 264.373 46.12C256.467 46.2133 248.56 46.1733 240.653 46.1733C240.613 52.5867 240.32 59.04 240.707 65.44C240.773 68.2667 242.533 71.0533 245.547 71.28C249.12 71.56 252.933 71.7333 256.467 70.9733C260.24 69.2533 259.307 63.7867 259.813 60.32C261.507 60.04 263.213 59.76 264.92 59.48C264.96 63 265.147 66.6533 264.627 70.1333C264 73.52 260.88 75.9867 257.573 76.4933C252.147 77.3333 246.36 77.4133 240.987 76.2533C237.64 75 234.227 71.7733 234.093 68C233.627 60.76 234.053 53.4533 233.88 46.1867C231.307 46.1867 228.72 46.1733 226.147 46.1733C226.16 44.3733 226.173 42.56 226.187 40.76C228.72 40.76 231.24 40.7467 233.773 40.7333C233.853 38.08 233.84 35.3867 234.133 32.7467Z" fill="#D71F24"/>
<path d="M135.053 40.72C136.987 40.7333 138.92 40.7333 140.853 40.7333C140.827 42.12 140.787 43.4933 140.76 44.88C142.52 43.4667 144.333 41.84 146.413 40.9067C151.28 39.9867 156.44 40.1733 161.373 40.4933C165.013 40.76 168.427 42.1733 170.493 45.28C172.693 49.0533 172.453 53.2533 172.667 57.4533C170.533 57.5067 168.387 57.5733 166.24 57.6267C165.587 53.92 166.64 47.5867 161.813 46.4133C157.4 45.68 152.707 45.8 148.253 46.1333C144.973 46.5867 141.96 48.7333 141.853 52.3067C141.32 60.3333 141.8 68.4533 141.667 76.4933C139.44 76.5333 137.213 76.5733 134.987 76.6C135.08 64.64 134.973 52.68 135.053 40.72Z" fill="#D71F24"/>
<path d="M328.973 40.84L330.147 40.8133C332 40.7733 333.853 40.7467 335.693 40.7067C335.747 52.6667 335.64 64.64 335.76 76.6C333.493 76.5733 331.24 76.5333 328.973 76.4933C329.04 64.6133 329.027 52.72 328.973 40.84Z" fill="#D71F24"/>
<path d="M5.07999 64.2933C16.9733 64.28 28.8533 64.2933 40.7467 64.28C40.6 76.08 40.6933 87.8933 40.6667 99.6933C52.6933 99.7867 64.6933 99.5333 76.7066 99.88C76.6533 111.68 76.7067 123.467 76.6667 135.267C52.8133 135.28 28.96 135.28 5.09332 135.267C5.07999 111.6 5.10665 87.9467 5.07999 64.2933Z" fill="#9C9892"/>
<path d="M40.7467 64.28L40.7467 63.8133C52.7467 64.6267 64.7066 64.08 76.7066 64.32C76.7066 76.08 76.68 87.84 76.7066 99.6V99.88C64.6933 99.5333 52.6933 99.7867 40.6667 99.6933C40.6933 87.8933 40.6 76.08 40.7467 64.28Z" fill="#9F212E"/>
<path d="M347.707 87.6533C349.893 87.5067 352.08 87.3733 354.267 87.24C354.587 89.6267 354.907 92.0133 355.227 94.3867C352.707 94.4 350.187 94.4133 347.667 94.4133C347.68 92.16 347.693 89.9067 347.707 87.6533Z" fill="#9C9892"/>
<path d="M237.987 91.72C240.213 91.6667 242.44 91.6133 244.68 91.56C244.707 106.16 244.653 120.76 244.707 135.373C242.453 135.373 240.213 135.373 237.96 135.373C238.013 120.827 237.973 106.267 237.987 91.72Z" fill="#9C9892"/>
<path d="M308.867 91.3733C311.107 91.3467 313.347 91.32 315.587 91.3067C315.573 94.0133 315.56 96.7333 315.533 99.44C323.427 99.5467 331.307 99.5467 339.187 99.5067C339.2 101.36 339.213 103.213 339.227 105.053C331.293 104.867 323.4 104.693 315.48 105.56C315.867 112.587 314.493 120.72 316.773 127.413C318.747 131.453 326.853 130.293 330.493 130C335.36 129.867 334.347 122.173 335.227 118.893C337.053 119 338.88 119.107 340.707 119.213C340.4 122.973 340.627 127.493 339 130.973C337.4 134.293 333.68 135.227 330.347 135.827C325.333 136.467 319.613 136.453 314.907 134.413C311.307 132.8 309.187 129.227 308.973 125.347C308.56 118.587 308.96 111.787 308.787 105.013C306.16 104.973 303.533 104.947 300.907 104.92C301.24 103.093 301.56 101.267 301.893 99.44C304.2 99.4667 306.507 99.48 308.813 99.5067C308.827 96.8 308.853 94.08 308.867 91.3733Z" fill="#9C9892"/>
<path d="M153.333 98.88C158.973 99.04 166.04 98.28 171.187 100.867C175.2 103.013 174.907 106.533 175.773 110.48C173.827 110.387 171.88 110.28 169.92 110.173C168.933 108.507 168.107 106.52 166.707 105.173C159.227 104.04 151.387 104.893 143.84 104.707C142.707 105.427 141.587 106.147 140.467 106.867C140.96 109.107 141 111.947 142.333 113.853C151.507 115.147 162.307 112.733 171.093 115.68C177.6 118.173 178.28 126.987 174.56 132.027C171.907 135.187 167.907 135.693 164.053 135.987C157.827 136.307 151.52 136.36 145.307 135.933C141.6 135.56 137.467 134.773 135.28 131.413C133.8 128.773 133.987 125.12 133.56 122.16C135.507 122.267 137.467 122.36 139.413 122.467C139.867 124.72 140.333 126.973 140.773 129.213C150.44 130.747 160.6 130.8 170.24 129.093C170.093 126.307 169.92 123.533 169.72 120.76C162.013 120.133 154.32 120.413 146.6 120.307C143.027 120.12 138.813 119.973 136.32 117C133.253 113.493 133.173 106.267 136.133 102.72C140.16 98.7333 148.08 99.1467 153.333 98.88Z" fill="#9C9892"/>
<path d="M255.067 99.9733C256.973 99.5867 258.893 99.3733 260.853 99.12C261.32 109.84 259.533 118.947 262.693 129.133C268.96 130.093 275.827 130.813 282.12 129.813C285.453 129.16 288.52 127.613 289.08 123.947C290.267 115.933 289.387 107.573 289.653 99.48C291.707 99.48 293.773 99.4667 295.84 99.4533C296.613 111.347 296.107 123.32 296.24 135.28C294.173 135.307 292.093 135.333 290.027 135.36C290.107 134.013 290.173 132.667 290.253 131.32C287 133.547 284.147 135.747 280.027 135.933C273.973 136.333 267.12 136.72 261.333 134.68C256.387 132.547 254.68 127.813 254.52 122.747C254.373 115.24 253.827 107.4 255.067 99.9733Z" fill="#9C9892"/>
<path d="M433.36 99.0533C438.733 98.7333 444.413 98.52 449.693 99.68C454.28 100.827 457.52 104.227 458.173 108.947C459.373 117.547 458.8 126.467 458.893 135.133C456.707 135.253 454.52 135.373 452.333 135.493C452.16 127.28 453.053 118.773 451.773 110.667C451.28 107.693 449.747 105.773 446.693 105.173C441.787 104.253 435.64 104.28 430.733 105.173C427.173 105.853 424.347 108.16 423.867 111.893C423.027 119.653 423.76 127.6 423.56 135.4C421.32 135.347 419.093 135.307 416.853 135.253C416.853 123.347 416.867 111.427 416.853 99.5067C418.987 99.52 421.107 99.5333 423.24 99.5333C423.227 100.773 423.213 102.013 423.187 103.253C426.52 101.32 429.373 99.2667 433.36 99.0533Z" fill="#9C9892"/>
<path d="M476.027 99.48C482.627 98.68 489.4 98.7333 496.04 99.1067C499.76 99.4267 503.813 100 506.2 103.213C507.24 105.373 507.387 108 507.853 110.347C505.787 110.36 503.72 110.387 501.64 110.4C501.32 108.8 501 107.213 500.68 105.613C492.547 104.453 484.067 104.08 475.907 105.067C471.373 106.893 473.48 110.48 473.747 114.147C482 114.333 490.373 113.76 498.587 114.6C502.133 115.107 506.733 116 508.16 119.787C509.853 124.827 509.6 130.853 504.6 133.893C499.56 136.72 492.293 136.027 486.667 136.213C481.467 136.013 474.733 136.573 470.107 133.893C466.133 131.627 466.467 126.36 465.587 122.44C467.547 122.347 469.507 122.253 471.48 122.16C471.987 124.533 472.493 126.893 472.987 129.267C482.64 130.773 492.96 130.747 502.587 129.107C502.04 126.813 503.107 121.587 500.16 120.907C491.213 119.12 481.28 121.627 472.413 119.467C466.387 117.893 465.52 110.627 466.96 105.533C468.107 101.48 472.267 100.027 476.027 99.48Z" fill="#9C9892"/>
<path d="M348.387 99.1467C350.333 99.3067 352.28 99.48 354.227 99.68C355.88 111.387 354.56 123.493 354.987 135.32C352.547 135.32 350.107 135.32 347.667 135.32C347.96 123.253 347.027 111.08 348.387 99.1467Z" fill="#9C9892"/>
<path fill-rule="evenodd" clip-rule="evenodd" d="M305.4 40.6133C298.213 40.16 290.2 40.1467 283.013 40.5733C279.13 40.7256 276.804 42.9801 274.221 45.4851C274.09 45.6117 273.959 45.739 273.827 45.8667C273.836 46.5269 273.846 47.1856 273.857 47.8433C273.877 49.138 273.898 50.4293 273.907 51.72C276.133 51.6533 278.36 51.5867 280.573 51.52L280.653 47.1333C286.978 45.6388 293.893 45.8275 300.484 46.0074C301.243 46.0282 301.998 46.0488 302.747 46.0667C305.6 46.08 307.973 46.72 309.747 49.0933C310.23 51.2457 310.254 53.5297 310.276 55.7721C310.284 56.5579 310.292 57.3386 310.32 58.1067C309.813 57.6733 309.303 57.2367 308.793 56.8C308.283 56.3633 307.773 55.9267 307.267 55.4933C298.36 54.12 288.92 53.6933 280.013 55.24C277.027 55.7333 274.24 56.8 272.84 59.7067C271.96 63.5467 271.92 68.12 273 71.92C275.08 76.6533 279.413 76.8533 283.973 77.0267C286.031 77.0011 288.124 77.0383 290.229 77.0758C296.908 77.1946 303.706 77.3155 309.88 75.44C310.157 75.6316 310.438 75.8232 310.719 76.0148L310.727 76.02C311.01 76.2133 311.293 76.4067 311.573 76.6L316.987 76.56C316.877 72.6092 316.907 68.6529 316.937 64.696C316.973 60.0265 317.008 55.3557 316.813 50.6933C316.667 44.52 311.053 40.9867 305.4 40.6133ZM293.005 60.3147C291.791 60.3263 290.568 60.3379 289.333 60.3333C285.893 60.3467 282.587 60.7067 279.227 61.4133C279.173 64.3067 279.16 67.1867 279.173 70.08C287.68 72.2299 297.27 71.5746 305.982 70.9795L306.267 70.96C310.317 70.0487 310.253 67.7072 310.175 64.8289C310.15 63.917 310.124 62.9512 310.227 61.96C304.467 60.2055 298.834 60.2592 293.005 60.3147Z" fill="#D71F24"/>
<path fill-rule="evenodd" clip-rule="evenodd" d="M397.293 99.44C390.093 98.6133 382.44 98.5467 375.267 99.64C370.253 100.573 365.973 103.387 364.8 108.613C363.893 113.787 363.907 121.187 364.813 126.36C366.133 132.427 371.827 134.973 377.453 135.707C384.92 136.453 392.88 136.627 400.24 134.973C405.36 133.787 409.213 129.333 409.68 124.107C410.107 118.947 410.373 113.373 409.133 108.307C407.48 102.92 402.64 100.093 397.293 99.44ZM390.475 104.597C385.652 104.491 380.733 104.383 376.027 105.227C372.053 106.107 370.747 109.68 370.333 113.32C370.04 117.413 369.88 122.147 371.467 126.013C372.533 128.507 374.893 129.827 377.52 130.013C385.573 130.587 394.107 130.627 401.987 128.72C403.4 122.48 404.787 114.453 402.293 108.373C400.962 105.162 397.074 104.902 394.014 104.697C393.796 104.683 393.582 104.668 393.373 104.653C392.413 104.64 391.446 104.619 390.475 104.597Z" fill="#9C9892"/>
<path fill-rule="evenodd" clip-rule="evenodd" d="M214.707 99.2667C207.453 98.68 199.853 98.4933 192.68 99.8533C187.693 101.013 184.12 104.613 183.053 109.64C181.96 115.52 181.8 122.28 183.893 127.96C186.333 133.56 191.787 135.267 197.413 135.88C204.453 136.373 211.933 136.6 218.827 134.92C223.987 133.68 227.827 129.453 228.253 124.107C228.76 118.653 229.053 112.587 227.347 107.32C225.2 102.04 220.067 99.8 214.707 99.2667ZM204.223 104.571C200.244 104.544 196.041 104.514 192.56 105.973C189.92 107.287 189.464 110.247 189.056 112.894C189.037 113.015 189.019 113.134 189 113.253C188.6 117.653 188.56 122.84 190.48 126.92C191.975 129.921 195.392 130.056 198.414 130.175C198.951 130.196 199.475 130.217 199.973 130.253C201.423 130.236 202.906 130.264 204.403 130.292C208.812 130.374 213.342 130.459 217.493 129.413C221.56 128.053 221.92 123.72 222.16 120.067C222.164 119.561 222.175 119.03 222.187 118.481C222.264 114.873 222.359 110.498 220.333 107.64C218.188 104.7 213.945 104.65 210.319 104.607C209.505 104.598 208.721 104.588 208 104.547C206.786 104.589 205.516 104.58 204.223 104.571Z" fill="#9C9892"/>
<path fill-rule="evenodd" clip-rule="evenodd" d="M220.053 45.3067C216.573 41.3067 211.787 40.4133 206.733 40.36C205.158 40.3633 203.57 40.3393 201.978 40.3152C197.184 40.2426 192.344 40.1694 187.64 40.84C182.667 41.6133 178.453 45.4933 177.933 50.5867C177.493 56.1333 177.4 61.96 178.013 67.4933C179.347 73.5467 184.667 76.88 190.68 76.8933C192.258 76.9162 193.86 76.9622 195.476 77.0086C202.352 77.206 209.476 77.4105 216.04 75.8667C221.253 74.3067 222.56 70.4133 223.893 65.6133C221.547 65.4 219.213 65.2133 216.867 65.0267C216.58 65.906 216.29 66.7853 216.001 67.6647L216 67.6657L216 67.6667C215.71 68.5467 215.42 69.4267 215.133 70.3067C209.721 71.6239 203.775 71.5259 198.059 71.4318C196.89 71.4126 195.73 71.3935 194.587 71.3867C191.507 71.3333 187.2 70.7467 185.413 67.8667C184.758 66.1743 184.497 64.3025 184.242 62.4672C184.149 61.8012 184.057 61.1394 183.947 60.4933C191.938 60.3556 199.929 60.3705 207.92 60.3854C213.075 60.3951 218.231 60.4047 223.387 60.3733C223.349 59.5021 223.336 58.6159 223.323 57.7245C223.259 53.3092 223.193 48.7678 220.053 45.3067ZM210.653 46.4667C203.733 45.6 196.24 45.7867 189.293 46.32C186.278 46.8262 185.298 49.751 184.414 52.3888C184.204 53.0165 183.999 53.6279 183.773 54.1867C194.893 54.4133 206.093 54.4933 217.2 54.1467C216.994 53.6339 216.808 53.1326 216.627 52.647C215.497 49.6099 214.596 47.1909 210.653 46.4667Z" fill="#D71F24"/>
</g>
<defs>
<clipPath id="clip0_1_45">
<rect width="512" height="174.667" fill="white"/>
</clipPath>
</defs>
</svg>
